# xmcd
#
# Track frame offsets:
# 150
# 22072
# 41782
# 59668
# 82229
# 99455
# 119022
# 141045
# 164080
# 179236
# 192391
# 209707
# 233162
#
# Disc length: 3373 seconds
#
#
# Revision: 0
# Processed by: cddbd v1.5PL3 Copyright (c) Steve Scherf et al.
# Submitted via: FreeRIP 2.60 
#
DISCID=d60d2b0d
DTITLE=Big and Rich - Horse Of A Different Color
DYEAR=2004
DGENRE=Country
TTITLE0=Rollin' (The Ballad Of Big and Rich)
TTITLE1=Wild West Show
TTITLE2=Big Time
TTITLE3=Kick My Ass
TTITLE4=Six Foot Town
TTITLE5=Holy Water
TTITLE6=Saved
TTITLE7=Real World
TTITLE8=Save A Horse (Ride A Cowboy)
TTITLE9=Drinkin' 'Bout You
TTITLE10=Love Train
TTITLE11=Deadwood Mountain
TTITLE12=Live This Life
EXTD=
EXTT0=
EXTT1=
EXTT2=
EXTT3=
EXTT4=
EXTT5=
EXTT6=
EXTT7=
EXTT8=
EXTT9=
EXTT10=
EXTT11=
EXTT12=
PLAYORDER=
